# xmcd
#
# Track frame offsets: 
#        150
#        30345
#        80337
#        154508
#        165275
#        192990
#        240711
#        261829
#        270144
#
# Disc length: 4380 seconds
#
# Revision: 0
# Processed by: cddbd v1.5.2PL0 Copyright (c) Steve Scherf et al.
# Submitted via: ExactAudioCopy v1.3
#
DISCID=5c111a09
DTITLE=Buddy Guy feat Eric Clapton - Strange Brew
DYEAR=1998
DGENRE=Chicago Blues
TTITLE0=Got My Mojo Working
TTITLE1=5 Long Years
TTITLE2=Hoochie Coochie Man
TTITLE3=Strange Brew
TTITLE4=Going Down
TTITLE5=Strange Brew (-)
TTITLE6=I'll Play the Blues For You
TTITLE7=Ain't That Peculiar
TTITLE8=Red House
EXTD=
EXTT0=
EXTT1=
EXTT2=
EXTT3=
EXTT4=
EXTT5=
EXTT6=
EXTT7=
EXTT8=
PLAYORDER=
